<svg width="23" height="75" viewBox="0 0 23 75" fill="none" xmlns="http://www.w3.org/2000/svg">
<path d="M10.739 3.15272C10.1238 3.38514 9.78819 3.64081 9.43023 4.16376C9.07226 4.6751 8.81497 5.62804 8.92683 6.08127L8.99395 6.36018H4.49698H0L0.067119 6.73206C0.268476 7.82446 4.37392 22.4556 4.48579 22.4672C4.55291 22.4789 4.82138 22.4905 5.06749 22.5021C5.4702 22.5137 5.51495 22.537 5.38071 22.6997C5.17935 22.9553 5.19054 23.8967 5.42546 24.3615C5.66037 24.8496 5.66037 24.838 5.3919 24.838C5.01156 24.838 4.50816 25.1634 4.32918 25.5353C4.2285 25.7328 4.12782 26.2209 4.08308 26.616C4.01596 27.4411 4.19494 27.9641 4.68715 28.3941L4.96681 28.6381L4.32918 28.7079C3.1546 28.8357 2.37154 29.684 2.37154 30.8113C2.37154 31.4621 2.52815 31.8921 2.90849 32.3104C3.4007 32.845 3.8146 33.0193 4.82138 33.0891C5.72749 33.1472 5.78342 33.1588 5.96241 33.4958C7.0475 35.4482 6.47699 44.0479 4.83257 50.8696C4.29562 53.1009 3.60206 55.0068 3.26646 55.2276C3.18815 55.2741 3.1546 56.0411 3.1546 57.4007L3.17697 59.4926L2.74069 59.7017C2.22611 59.9458 1.63323 60.6431 1.52137 61.1428C1.47662 61.3403 1.32001 61.7006 1.1634 61.9447C0.939667 62.2817 0.861361 62.5954 0.827802 63.1533C0.771869 64.0946 0.995599 64.757 1.61086 65.3845L2.05832 65.861H1.29763C0.872548 65.861 0.458647 65.9075 0.369155 65.9656C0.234917 66.047 0.22373 66.5467 0.290849 68.9523C0.335595 70.5444 0.413901 71.8808 0.458647 71.9389C0.503393 71.9854 5.51495 72.0087 11.6116 71.997L22.6751 71.9622L22.6303 69.0569C22.6079 67.3485 22.552 66.0934 22.4849 66.0005C22.4178 65.9191 22.1045 65.861 21.7018 65.861H21.0306L21.3774 65.5124C21.8584 65.001 22.2052 63.9668 22.1269 63.2695C22.0934 62.9557 21.9927 62.549 21.892 62.3514C21.8025 62.1538 21.7242 61.8284 21.7242 61.6425C21.7242 61.1195 21.3103 60.3177 20.8628 59.969C20.6503 59.7947 20.2476 59.5972 19.9567 59.5274L19.431 59.388L19.3974 57.4937L19.3638 55.5878L18.9276 55.0881C18.6927 54.8092 18.4242 54.356 18.3347 54.0887C18.234 53.8214 18.0327 53.2171 17.876 52.7522C17.0594 50.3931 16.4218 45.7679 16.2764 41.3402C16.1757 37.7376 16.4889 34.902 17.1489 33.6585L17.4174 33.1472L18.4801 33.0891C19.5876 33.0193 20.0127 32.8683 20.4601 32.3686C20.7957 31.9967 20.9411 31.5434 20.9411 30.8345C20.9411 29.7421 20.1581 28.8822 18.9835 28.7195L18.4689 28.6381L18.8157 28.2663C19.2408 27.813 19.3974 27.2668 19.3079 26.5231C19.1737 25.4771 18.6703 24.838 17.9655 24.838H17.5964L17.8089 24.3383C18.0774 23.7456 18.0886 23.4434 17.876 22.9205C17.7082 22.5137 17.7082 22.5137 18.0103 22.4905C18.5137 22.4672 18.5696 22.4556 18.6479 22.3859C18.7598 22.2581 23.0554 6.54612 22.9995 6.45315C22.9659 6.40667 20.9859 6.36018 18.6032 6.36018H14.2628L14.2516 5.73263C14.2404 3.86161 12.417 2.53679 10.739 3.15272Z" fill="black"/>
</svg>
