<svg width="24" height="75" viewBox="0 0 24 75" fill="none" xmlns="http://www.w3.org/2000/svg">
<path d="M3.41871 10.2378C3.21504 10.4459 3.18594 11.1595 3.21504 16.3622L3.25868 22.2635L3.70966 22.5014L4.17518 22.7243L3.89878 23.0959C3.43325 23.6905 3.1423 24.9689 3.21504 25.9797C3.34597 27.5108 4.07335 28.5662 5.39719 29.1757L6.08093 29.4878L5.80452 29.9635C5.28081 30.8405 5.52812 32.5797 6.2555 33.1C6.51736 33.2784 6.51736 33.3824 6.09547 36.177C5.07714 42.8662 3.97152 47.2514 2.48766 50.4622C2.18216 51.1459 1.87665 51.8743 1.83301 52.0973C1.77482 52.3054 1.48387 52.6473 1.14927 52.8703C0.494628 53.3162 0.29096 53.8365 0.596461 54.3419C0.712842 54.5203 0.858319 55.0108 0.901962 55.4419C0.989248 56.2743 1.29475 57.0027 1.77482 57.523L2.06577 57.8649H1.25111C-0.0145403 57.8649 7.34637e-06 57.8203 7.34637e-06 61.3878C7.34637e-06 63.0824 0.0727456 64.5838 0.145484 64.7324C0.276413 64.9851 0.829223 65 11.9582 65C20.8468 65 23.6836 64.9554 23.8145 64.8216C24.0618 64.5689 24.0618 58.2959 23.8145 58.0432C23.7127 57.9392 23.3781 57.8649 23.0726 57.8649H22.5052L22.8689 57.4189C23.4799 56.6905 23.7418 55.7541 23.669 54.6986C23.5818 53.6432 23.3344 53.0486 22.6798 52.3797L22.2143 51.9189H22.5925C22.7962 51.9189 22.9708 51.9041 22.9708 51.8743C22.9708 51.8446 22.5343 51.1608 21.9961 50.3432C20.8613 48.6041 20.4831 47.7716 19.5811 45.0811C18.2573 41.1122 17.2972 36.5189 17.2972 34.1554C17.2972 33.4122 17.3408 33.2338 17.6027 33.0703C18.2573 32.6541 18.5483 30.8703 18.0973 30.0676C17.7918 29.5324 17.8209 29.5027 18.5046 29.2946C19.4502 29.0122 20.5558 27.8081 20.7886 26.8122C21.065 25.5932 20.9195 24.2554 20.3813 23.3784L19.9448 22.6649L20.454 22.5905C21.4142 22.427 21.3705 22.7392 21.3705 16.3027V10.4608L21.0505 10.2378C20.7595 10.0297 19.683 10 12.1764 10C4.58252 10 3.62237 10.0297 3.41871 10.2378Z" fill="black"/>
</svg>
