<svg width="23" height="75" viewBox="0 0 23 75" fill="none" xmlns="http://www.w3.org/2000/svg">
<path d="M10.6109 7.08918C9.46995 7.30763 8.36358 8.06648 7.69514 9.05527C7.07281 10.0096 6.88841 10.7224 6.94603 11.9527C6.99213 13.0565 7.2111 13.7233 7.79887 14.5626L8.07546 14.9651L7.60294 15.4825C5.60916 17.621 4.58346 20.6794 4.58346 24.4966C4.58346 27.1296 4.98683 29.0842 5.98948 31.2802C6.3237 32.0046 6.34675 32.0966 6.16235 32.2C5.66679 32.499 5.37867 32.7864 5.24037 33.1314C5.03293 33.6258 5.03293 34.8215 5.24037 35.2354C5.40172 35.5459 5.40172 35.5574 5.0214 35.6953C4.81396 35.7643 4.47974 36.0058 4.29534 36.2127C3.58081 37.0291 3.74216 38.7997 4.57194 39.3516L4.89463 39.5585L4.1801 39.6275C2.95847 39.7425 2.24394 40.4324 2.10564 41.6396C2.03649 42.318 2.25546 42.8814 2.7856 43.3298C3.33879 43.8127 3.9035 43.9851 4.88311 43.9851C5.59764 43.9851 5.65526 44.0081 5.89728 44.3416C6.20845 44.7785 6.46199 45.6063 6.46199 46.1927C6.46199 47.4114 5.48239 49.1361 3.92655 50.6653L2.9239 51.6426L2.98152 53.5972L3.03915 55.5633L2.49748 55.8162C1.8982 56.1152 1.49483 56.5866 1.26434 57.2649C1.17214 57.5179 1.01079 57.8513 0.907069 58.0123C0.791822 58.1732 0.642 58.5987 0.561327 58.9551C0.365406 59.8634 0.642 60.7487 1.33348 61.4386L1.81752 61.9215H0.976218C0.480654 61.9215 0.100337 61.979 0.0542382 62.0479C-0.0379598 62.1974 -0.00338554 67.6128 0.0888124 67.8543C0.134911 67.9922 1.7599 68.0152 11.579 67.9922L23 67.9577V65.0488C23 62.5883 22.977 62.1284 22.8271 62.0364C22.7349 61.979 22.3316 61.9215 21.9282 61.9215H21.2021L21.6286 61.5535C21.8706 61.3466 22.1472 60.9672 22.2624 60.7142C22.516 60.1623 22.539 59.1735 22.3085 58.5297C22.2163 58.2767 22.1356 57.9893 22.1356 57.8973C22.1241 56.8625 20.9601 55.5978 20.0266 55.5978H19.75L19.6809 53.6202L19.6117 51.6426L19.289 51.4126C18.6667 50.9642 17.5257 49.8144 17.1915 49.2856C16.1889 47.7219 16.2811 45.4798 17.3875 44.2956C17.6525 44.0081 17.7562 43.9851 18.5169 43.9851C19.8998 43.9851 20.6835 43.5827 21.1099 42.6629C21.375 42.0995 21.3865 41.5821 21.156 41.0187C20.7988 40.1794 19.9805 39.616 19.1277 39.616H18.6552L19.0124 39.2826C19.4734 38.8457 19.6002 38.4893 19.6002 37.5924C19.6002 36.5002 19.1623 35.8333 18.321 35.6493C18.0444 35.5919 17.9867 35.5344 18.0559 35.3849C18.1135 35.2699 18.1711 34.718 18.1942 34.1431L18.2288 33.0969L17.8484 32.6944C17.641 32.476 17.399 32.269 17.3183 32.246C17.2146 32.2115 17.2953 31.9356 17.5834 31.2457C18.0098 30.2339 18.3325 29.0497 18.563 27.716C18.7474 26.5777 18.7243 23.6688 18.5169 22.4845C18.4132 21.9441 18.3325 21.4382 18.3325 21.3578C18.3325 21.2888 18.2979 21.2198 18.2518 21.2198C18.1942 21.2198 17.3068 22.1741 16.2696 23.3469C15.2208 24.5196 14.3449 25.4739 14.3103 25.4739C14.1951 25.4739 12.9159 24.3127 12.9159 24.2092C12.9159 24.1517 13.9531 22.9444 15.2208 21.5187L17.5373 18.9318L17.1685 18.2074C16.7421 17.3681 16.1082 16.4138 15.5435 15.7699L15.1401 15.31L15.5435 14.7926C16.2926 13.8038 16.4194 13.3784 16.4309 11.9067C16.4309 10.6534 16.4078 10.55 16.0621 9.82562C15.0595 7.79053 12.8121 6.66376 10.6109 7.08918Z" fill="black"/>
</svg>
