<svg width="27" height="75" viewBox="0 0 27 75" fill="none" xmlns="http://www.w3.org/2000/svg">
<path d="M4.03409 10.2364C3.45181 10.5467 2.72397 11.5958 1.82145 13.3836C0.933489 15.1567 0.540456 16.4422 0.20565 18.6438C-0.0709293 20.5351 -0.0709293 21.9092 0.220206 22.7219C0.453115 23.4164 0.482229 23.5493 2.30183 31.3509C4.20877 39.5367 4.76192 43.334 4.89294 49.0818L4.98028 52.628L3.99041 52.9087C2.82587 53.2485 2.30183 53.6475 1.87968 54.5636C1.48665 55.391 1.42842 57.2823 1.77778 57.962C2.01069 58.4201 2.65119 59.0554 3.11701 59.3214C3.34992 59.4544 3.24802 59.4839 2.52018 59.4987C1.15184 59.4987 1.15184 59.4987 1.15184 62.7789C1.15184 65.2317 1.18095 65.542 1.41386 65.7488C1.66133 65.9852 2.72397 66 13.6416 66C25.418 66 25.6072 66 25.8984 65.7045C26.175 65.4237 26.1895 65.2169 26.1895 62.7493C26.1895 59.543 26.175 59.4987 24.7193 59.4987H23.8168L24.2389 59.1588C25.2579 58.3609 25.6072 57.6517 25.6072 56.3958C25.6072 55.3615 25.3452 54.6522 24.7047 53.943C24.2098 53.4111 23.9187 53.2338 23.0307 52.953C22.0991 52.6723 21.968 52.5836 22.0263 52.3325C22.0699 52.1699 22.1427 51.5937 22.201 51.047L22.3029 50.0718L22.9142 49.8206C24.8794 49.067 26.0148 46.2301 25.6072 43.1124C25.418 41.5757 24.7921 39.6992 24.137 38.5763C23.5547 37.6011 22.9288 36.8475 20.0029 33.6116C15.7669 28.9425 15.7814 28.972 15.8251 28.248C15.8833 26.8887 16.8149 25.1156 17.8048 24.4802C18.5472 24.0222 19.1731 23.9778 21.0655 24.2438C21.968 24.3768 23.1908 24.4802 23.7876 24.4802C24.7193 24.4802 24.9085 24.4359 25.3016 24.096C25.5927 23.8449 25.8256 23.4459 25.9857 22.9288C26.1895 22.2195 26.1895 22.0865 25.9857 21.7024C25.8547 21.4512 25.5345 21.1113 25.2433 20.934C24.9667 20.7567 24.7338 20.5203 24.7338 20.4021C24.7338 20.1657 25.287 19.7372 26.1895 19.2792C27.092 18.8063 27.2085 18.3631 26.699 17.2992C26.4515 16.7821 26.0585 16.2797 25.6072 15.9251C24.9522 15.3931 24.7921 15.3488 22.9579 15.0533C21.8953 14.8908 19.9155 14.5952 18.5472 14.4179C16.451 14.1372 15.9998 14.0338 15.5922 13.7235C15.1409 13.3836 14.9953 13.3541 13.2631 13.3393C10.9922 13.3245 9.50744 12.9256 9.01251 12.2164C8.83783 11.9799 8.51758 11.7583 8.241 11.6992C7.55683 11.5367 6.97456 11.2116 6.29039 10.5763C5.76634 10.0887 5.5771 10 5.05306 10C4.7037 10.0148 4.25244 10.1034 4.03409 10.2364Z" fill="black"/>
</svg>
