<svg width="21" height="75" viewBox="0 0 21 75" fill="none" xmlns="http://www.w3.org/2000/svg">
<path d="M8.17573 1.13487C8.09417 1.22479 8.0534 1.69684 8.0534 2.5398V3.80985H6.89126C6.03495 3.80985 5.70874 3.85481 5.61699 3.9672C5.53544 4.06836 5.50485 4.75396 5.52524 6.18137L5.55583 8.24942L6.80971 8.28314L8.0534 8.31686V9.42956V10.5535H4.0267C1.43738 10.5535 0 10.5985 0 10.6659C0 10.7221 0.601456 13.0936 1.33544 15.9147C2.06942 18.747 2.94612 22.1526 3.28252 23.4788C3.62913 24.8051 3.94515 25.9627 4.00631 26.0302C4.05728 26.1089 4.27136 26.1763 4.48544 26.1763H4.87282L4.82184 26.8844C4.78107 27.4239 4.81165 27.6824 4.94417 27.9634C5.03592 28.1657 5.09709 28.3455 5.0767 28.3567C5.05631 28.368 4.8932 28.4467 4.70971 28.5366C4.16942 28.7726 3.80243 29.3346 3.72087 30.0426C3.62913 30.8519 3.70049 31.1441 4.12864 31.6724L4.48544 32.0995L3.91456 32.1669C1.85534 32.4029 1.47816 35.3477 3.38447 36.2356C3.60874 36.3255 4.06748 36.4042 4.47524 36.4042C5.12767 36.4042 5.20922 36.4266 5.36214 36.6851C6.07573 37.8765 6.15728 41.5293 5.5966 46.4072C5.05631 51.1727 3.96553 56.1406 3.15 57.5905L2.82379 58.1524L2.89515 60.0294L2.9665 61.9064L2.57913 62.0862C2.03883 62.3335 1.66165 62.7606 1.45777 63.3675C1.36602 63.6485 1.15194 64.1543 0.999029 64.4915C0.499515 65.548 0.652427 66.6719 1.42718 67.5598L1.89612 68.0993H1.16214C0.662621 68.0993 0.397573 68.1443 0.316019 68.2567C0.234466 68.3691 0.224272 69.1558 0.275243 71.2014L0.356796 74H10.5H20.6432L20.6228 71.1452C20.6024 68.9985 20.5617 68.2567 20.4699 68.1892C20.3985 68.1443 20.0417 68.0993 19.6748 68.0993H19.0121L19.3485 67.8633C20.0316 67.38 20.368 65.9413 20.0316 64.9523C19.9398 64.6713 19.8277 64.2217 19.7869 63.9407C19.6951 63.345 19.4811 62.8617 19.1447 62.5133C18.8796 62.2323 18.2476 61.9176 17.9621 61.9176C17.7888 61.9176 17.7583 61.794 17.6971 60.8836C17.6665 60.3216 17.6359 59.4674 17.6359 58.9841C17.6359 58.1524 17.6257 58.1075 17.2995 57.7478C16.6573 57.0397 15.9437 54.6682 15.4951 51.7572C14.5471 45.6317 14.6083 38.9105 15.6277 36.9099L15.8621 36.4604L16.8204 36.4042C17.8806 36.3367 18.268 36.1794 18.6859 35.6174C19.1956 34.9543 19.2568 33.9427 18.8388 33.1672C18.584 32.7064 17.901 32.2681 17.2791 32.1781C16.8102 32.0995 16.8 32.0995 17.0141 31.9196C17.4626 31.5375 17.6359 31.1104 17.6359 30.3236C17.6359 29.7392 17.585 29.5032 17.4117 29.2109C17.1976 28.8737 16.7184 28.5141 16.2903 28.3792C16.1272 28.323 16.1272 28.2893 16.2699 27.9072C16.3718 27.6374 16.4126 27.244 16.3922 26.8282C16.3617 26.1875 16.3617 26.1763 16.6369 26.1763C16.8 26.1763 16.9529 26.0976 17.0039 25.974C17.0956 25.7829 21 10.8008 21 10.6322C21 10.5872 19.2364 10.5535 17.0752 10.5535H13.1505V9.42956V8.30562H14.2515C14.9752 8.30562 15.3932 8.26066 15.4748 8.17075C15.6481 7.97968 15.6481 4.1358 15.4748 3.94473C15.3932 3.85481 14.9752 3.80985 14.2515 3.80985H13.1505V2.5398C13.1505 1.69684 13.1097 1.22479 13.0282 1.13487C12.9364 1.03372 12.2534 0.999999 10.6019 0.999999C8.95049 0.999999 8.26748 1.03372 8.17573 1.13487Z" fill="black"/>
</svg>
