<svg width="26" height="75" viewBox="0 0 26 75" fill="none" xmlns="http://www.w3.org/2000/svg">
<path d="M12.8391 15.1211C9.63949 15.8182 7.3383 18.2013 6.66055 21.4923C6.15618 23.9889 6.84969 26.4855 8.63075 28.4471L9.32426 29.209L8.69379 29.3711C7.19645 29.7926 6.14042 31.1058 5.74638 33.0512C5.46267 34.4129 5.44691 36.2286 5.6991 36.488C5.82519 36.6177 6.43989 36.6826 7.43287 36.6826H8.9775L8.89869 37.1203C8.86717 37.3797 8.78836 38.0606 8.74108 38.6442C8.52042 41.3029 7.11764 44.2048 4.86373 46.6365C3.88652 47.7065 3.66585 47.8686 3.19301 47.8686C2.04241 47.8686 0.82877 48.7116 0.292877 49.895C-0.27454 51.1595 -0.00659283 52.57 1.00215 53.6237C1.38043 54.0128 1.90056 54.3694 2.18427 54.4343C2.75168 54.564 2.84625 54.8396 2.31036 54.8396C1.63261 54.8396 1.56956 55.0665 1.56956 57.8549C1.56956 60.0273 1.61685 60.5299 1.82175 60.7406C2.04241 60.9676 3.33486 61 13.7848 61C24.2347 61 25.5272 60.9676 25.7478 60.7406C25.9527 60.5299 26 60.0273 26 57.8549C26 55.1314 25.937 54.8396 25.3223 54.8396C25.1646 54.8396 25.0543 54.7909 25.0858 54.7099C25.5587 53.7696 25.7478 53.1049 25.8109 52.0836C25.9054 50.3652 25.6848 49.6519 24.7706 48.8089C22.5797 46.7662 21.2873 45.1775 20.4204 43.378C19.5535 41.5947 19.3486 40.7031 19.3171 38.5793L19.2856 36.6826H21.1297C22.5797 36.6826 23.0053 36.6339 23.1629 36.4394C23.4624 36.0665 23.2575 33.2457 22.8634 32.1271C22.296 30.5708 21.2242 29.5819 19.8215 29.3063L19.254 29.1928L19.9318 28.4633C23.2575 24.8967 22.5325 18.9633 18.4502 16.2559C16.9213 15.267 14.4468 14.7482 12.8391 15.1211ZM13.8636 15.8182C13.8636 15.8344 13.107 16.6288 12.1771 17.5529L10.4749 19.2551L12.1298 17.5042C13.6587 15.8993 13.8636 15.6885 13.8636 15.8182Z" fill="black"/>
</svg>
